HIERARCHY
ROOT root
{
	OFFSET	0	13.1	24.9
	CHANNELS 6  Xposition Yposition Zposition Xrotation Yrotation Zrotation
	JOINT spine_1
	{
		OFFSET	0	9.99999	0
		CHANNELS 3  Xrotation Yrotation Zrotation
		JOINT spine_2
		{
			OFFSET	0	112	-10
			CHANNELS 3  Xrotation Yrotation Zrotation
			JOINT spine_3
			{
				OFFSET	0	206.5	19.3
				CHANNELS 3  Xrotation Yrotation Zrotation
				JOINT spine_4
				{
					OFFSET	0	110.4	14.6
					CHANNELS 3  Xrotation Yrotation Zrotation
					JOINT neck_1
					{
						OFFSET	0	71.8	-50.3
						CHANNELS 3  Xrotation Yrotation Zrotation
						JOINT neck_2
						{
							OFFSET	0	86.2	-25.8
							CHANNELS 3  Xrotation Yrotation Zrotation
							JOINT head_ee
							{
								OFFSET	0	179.8	-8.7
								CHANNELS 3  Xrotation Yrotation Zrotation
								End Site
								{
									OFFSET	1	0	0
								}
							}
						}
					}
					JOINT left_clavicle
					{
						OFFSET	-43.2	22.4	-70.8
						CHANNELS 3  Xrotation Yrotation Zrotation
						JOINT left_shoulder
						{
							OFFSET	-93.9	-5.79999	48.7
							CHANNELS 3  Xrotation Yrotation Zrotation
							JOINT left_elbow
							{
								OFFSET	-291.4	-30.8	15.2
								CHANNELS 3  Xrotation Yrotation Zrotation
								JOINT left_lowarm_twist
								{
									OFFSET	-110.7	-3.89999	13.6
									CHANNELS 3  Xrotation Yrotation Zrotation
									JOINT left_hand
									{
										OFFSET	-110.7	-3.89999	13.6
										CHANNELS 3  Xrotation Yrotation Zrotation
										JOINT left_ee
										{
											OFFSET	-80.8	-5.10001	12.1
											CHANNELS 3  Xrotation Yrotation Zrotation
											End Site
											{
												OFFSET	1	0	0
											}
										}
									}
								}
							}
						}
					}
					JOINT right_clavicle
					{
						OFFSET	43.2	22.4	-70.8
						CHANNELS 3  Xrotation Yrotation Zrotation
						JOINT right_shoulder
						{
							OFFSET	93.9	-5.79999	48.7
							CHANNELS 3  Xrotation Yrotation Zrotation
							JOINT right_elbow
							{
								OFFSET	291.4	-30.8	15.2
								CHANNELS 3  Xrotation Yrotation Zrotation
								JOINT right_lowarm_twist
								{
									OFFSET	110.7	-3.89999	13.6
									CHANNELS 3  Xrotation Yrotation Zrotation
									JOINT right_hand
									{
										OFFSET	110.7	-3.89999	13.6
										CHANNELS 3  Xrotation Yrotation Zrotation
										JOINT right_ee
										{
											OFFSET	80.8	-5.10001	12.1
											CHANNELS 3  Xrotation Yrotation Zrotation
											End Site
											{
												OFFSET	1	0	0
											}
										}
									}
								}
							}
						}
					}
				}
			}
		}
	}
	JOINT left_hip
	{
		OFFSET	-82.8	-127.5	0.300001
		CHANNELS 3  Xrotation Yrotation Zrotation
		JOINT left_knee
		{
			OFFSET	-28.2	-396.7	2.2
			CHANNELS 3  Xrotation Yrotation Zrotation
			JOINT left_ankle
			{
				OFFSET	-11.7	-411.3	35.4
				CHANNELS 3  Xrotation Yrotation Zrotation
				JOINT left_toes
				{
					OFFSET	0	-60	-88.6
					CHANNELS 3  Xrotation Yrotation Zrotation
					JOINT left_foot_ee
					{
						OFFSET	-22.5	-16.5	-42.2
						CHANNELS 3  Xrotation Yrotation Zrotation
						End Site
						{
							OFFSET	1	0	0
						}
					}
				}
			}
		}
	}
	JOINT right_hip
	{
		OFFSET	82.8	-127.5	0.300001
		CHANNELS 3  Xrotation Yrotation Zrotation
		JOINT right_knee
		{
			OFFSET	28.2	-396.7	2.2
			CHANNELS 3  Xrotation Yrotation Zrotation
			JOINT right_ankle
			{
				OFFSET	11.7	-411.3	35.4
				CHANNELS 3  Xrotation Yrotation Zrotation
				JOINT right_toes
				{
					OFFSET	0	-60	-88.6
					CHANNELS 3  Xrotation Yrotation Zrotation
					JOINT right_foot_ee
					{
						OFFSET	22.5	-16.5	-42.2
						CHANNELS 3  Xrotation Yrotation Zrotation
						End Site
						{
							OFFSET	1	0	0
						}
					}
				}
			}
		}
	}
}
MOTION
Frames: 7
Frame Time: 0.02
3508.34464316 743.859 -1456.04383379 176.234604418 37.3111383044 -168.554739789 -0.594413 -0.562776 -3.92842 -0.585883 -0.311861 -3.95621 -0.55856 0.565562 -3.92802 -0.58008 -0.0613863 -3.96799 -10.9353 -5.00432 2.61192 -10.9652 -11.1776 1.20472 -0.0 0.0 -0.0 3.80885 -4.00072 7.11585 -27.2638 -41.8413 69.4018 0.950651 -25.2165 0.212644 59.1738 -1.70093 -7.03119 -3.03727 28.7218 -5.17122 -0.0 0.0 -0.0 -1.21194 -1.6312 2.11032 12.1342 28.2538 -55.7212 0.988164 26.0816 -0.228882 39.1016 0.303362 4.89013 3.27905 14.4642 -16.0617 0.0 0.0 0.0 16.1188 -20.5212 -2.76078 -46.1155 -0.900937 6.83224 16.5029 17.295 -2.32248 18.1063 -0.0 -0.0 -0.0 0.0 -0.0 -4.98991 -11.7045 -14.4753 -15.7009 -0.32206 -2.38043 28.6001 -4.12295 3.73922 26.4836 -0.0 -0.0 0.0 0.0 0.0 
3507.3633408 743.859 -1459.94723821 176.051684697 40.6623794787 -168.264119193 -0.594413 -0.562776 -3.92842 -0.585883 -0.311861 -3.95621 -0.55856 0.565562 -3.92802 -0.58008 -0.0613863 -3.96799 -10.9353 -5.00432 2.61192 -10.9652 -11.1776 1.20472 -0.0 0.0 -0.0 3.80885 -4.00072 7.11585 -27.2638 -41.8413 69.4018 0.950651 -25.2165 0.212644 59.1738 -1.70093 -7.03119 -3.03727 28.7218 -5.17122 -0.0 0.0 -0.0 -1.21194 -1.6312 2.11032 12.1342 28.2538 -55.7212 0.988164 26.0816 -0.228882 39.1016 0.303362 4.89013 3.27905 14.4642 -16.0617 0.0 0.0 0.0 16.1188 -20.5212 -2.76078 -46.1155 -0.900937 6.83224 16.5029 17.295 -2.32248 18.1063 -0.0 -0.0 -0.0 0.0 -0.0 -4.98991 -11.7045 -14.4753 -15.7009 -0.32206 -2.38043 28.6001 -4.12295 3.73922 26.4836 -0.0 -0.0 0.0 0.0 0.0 
3501.61039617 742.84 -1464.50271437 176.345923318 43.4654684944 -168.451077271 -0.777312 -0.528283 -3.78438 -0.769392 -0.286582 -3.81028 -0.744598 0.570413 -3.77827 -0.764513 -0.0330011 -3.82088 -10.0407 -4.61086 2.04114 -10.0584 -10.0574 0.836791 -0.0 0.0 -0.0 3.42892 -3.44271 6.39367 -27.9084 -41.2617 69.3914 1.00058 -26.3651 0.234367 58.8462 -1.67229 -7.00048 -3.09862 27.9507 -5.93753 -0.0 0.0 -0.0 -0.730331 -1.00365 1.2767 13.2013 27.9719 -55.5477 1.00339 26.429 -0.235616 39.3029 0.3135 4.91379 2.98818 15.6973 -13.4562 0.0 0.0 0.0 17.339 -21.4075 -2.06189 -47.6389 -1.02281 7.03254 18.719 16.7801 -2.60665 18.7902 -0.0 -0.0 -0.0 0.0 -0.0 -5.70138 -11.306 -14.7451 -12.8559 -0.31234 -1.94407 28.0008 -4.34278 3.67285 27.029 -0.0 -0.0 0.0 0.0 0.0 
3500.10565577 744.47 -1471.96477557 176.432195901 46.3557781895 -168.505977186 -1.008 -0.546101 -3.67547 -1.00054 -0.311279 -3.70272 -0.974471 0.537026 -3.67681 -0.99333 -0.0499809 -3.71543 -9.86791 -4.10146 1.41494 -9.88302 -8.67478 0.367504 -0.0 0.0 -0.0 2.80012 -2.9512 5.18107 -28.5493 -40.9112 70.2176 1.12145 -29.0528 0.290586 59.5371 -1.73289 -7.06506 -3.20272 28.2758 -6.32108 -0.0 0.0 -0.0 -0.616655 -0.870216 1.07659 15.4503 28.3483 -55.7133 1.10895 28.781 -0.284543 38.8149 0.289059 4.85636 2.81235 17.202 -11.5318 0.0 0.0 0.0 19.9602 -22.7028 -0.721484 -47.7678 -1.03337 7.04934 19.7718 17.9628 -2.75113 17.8779 -0.0 -0.0 -0.0 0.0 -0.0 -6.20639 -10.2995 -15.441 -5.1506 -0.177536 -0.770262 25.0927 -4.15554 3.34459 26.1547 -0.0 -0.0 0.0 0.0 0.0 
3481.34479921 747.563 -1477.53393888 176.326176551 49.710186188 -168.658929304 -1.31321 -0.490136 -3.39857 -1.30683 -0.273013 -3.42283 -1.28494 0.529152 -3.39272 -1.301 -0.0129771 -3.43366 -9.01373 -3.43949 0.86831 -9.02075 -7.048 0.0504678 -0.0 0.0 -0.0 2.05531 -0.793361 3.89297 -29.2114 -40.8315 71.185 1.04227 -27.3071 0.253189 60.9878 -1.86266 -7.1983 -2.28898 25.6627 -2.68304 -0.0 0.0 -0.0 0.0671938 0.939727 -0.0187315 18.0118 27.9416 -55.9618 1.34096 33.5933 -0.40479 38.9708 0.296814 4.87473 2.666 20.6001 -8.89935 0.0 0.0 0.0 25.1429 -24.5568 -0.247815 -43.9287 -0.735439 6.53931 27.6997 17.6931 -3.70888 15.1709 -0.0 -0.0 -0.0 0.0 -0.0 -8.02734 -9.60516 -16.131 1.498 0.0645785 0.220792 25.3436 -7.72089 3.37104 27.1694 -0.0 -0.0 0.0 0.0 0.0 
3481.39118656 747.563 -1478.79139714 176.266366112 50.4828239556 -168.58096418 -1.31321 -0.490136 -3.39857 -1.30683 -0.273013 -3.42283 -1.28494 0.529152 -3.39272 -1.301 -0.0129771 -3.43366 -9.01373 -3.43949 0.86831 -9.02075 -7.048 0.0504678 -0.0 0.0 -0.0 2.05531 -0.793361 3.89297 -29.2114 -40.8315 71.185 1.04227 -27.3071 0.253189 60.9878 -1.86266 -7.1983 -2.28898 25.6627 -2.68304 -0.0 0.0 -0.0 0.0671938 0.939727 -0.0187315 18.0118 27.9416 -55.9618 1.34096 33.5933 -0.40479 38.9708 0.296814 4.87473 2.666 20.6001 -8.89935 0.0 0.0 0.0 25.1429 -24.5568 -0.247815 -43.9287 -0.735439 6.53931 27.6997 17.6931 -3.70888 15.1709 -0.0 -0.0 -0.0 0.0 -0.0 -8.02734 -9.60516 -16.131 1.498 0.0645785 0.220792 25.3436 -7.72089 3.37104 27.1694 -0.0 -0.0 0.0 0.0 0.0 
3467.01962811 744.263 -1480.48081399 175.349198067 54.5937681489 -167.827397792 -1.55404 -0.225492 -3.04759 -1.54888 -0.0312009 -3.05576 -1.54286 0.692745 -2.97643 -1.55516 0.214208 -3.04841 -8.21432 -2.8555 0.797804 -8.21574 -5.89561 0.158574 -0.0 0.0 -0.0 1.7325 0.267723 3.3611 -29.8895 -40.5107 72.824 0.951406 -25.234 0.212966 60.8099 -1.84656 -7.18213 -2.1651 25.718 -1.96315 -0.0 0.0 -0.0 0.676629 1.79927 -1.11044 19.5584 29.2329 -55.6935 1.48853 36.4018 -0.489455 37.1141 0.207732 4.65468 3.12762 21.629 -11.4676 0.0 0.0 0.0 27.6644 -25.916 -0.658668 -37.2728 -0.302442 5.61269 22.1887 19.4379 -3.07097 14.3259 -0.0 -0.0 -0.0 0.0 -0.0 -10.5475 -7.70576 -16.7003 4.08329 0.189558 0.5977 27.3479 -9.01544 3.6017 25.3258 -0.0 -0.0 0.0 0.0 0.0 
